<svg version="1.1" id="Layer_1" xmlns="http://www.w3.org/2000/svg" xmlns:xlink="http://www.w3.org/1999/xlink" x="0px" y="0px"
	 width="100%" viewBox="0 0 256 256" enable-background="new 0 0 256 256" xml:space="preserve">
<path fill="#000000" opacity="1.000000" stroke="none" 
	d="
M257.000000,92.000000 
	C257.000000,147.333328 257.000000,202.166672 257.000000,257.000000 
	C171.666672,257.000000 86.333336,257.000000 1.000000,257.000000 
	C1.000000,171.666672 1.000000,86.333336 1.000000,1.000000 
	C86.333336,1.000000 171.666672,1.000000 257.000000,1.000000 
	C257.000000,31.166666 257.000000,61.333332 257.000000,92.000000 
M121.886940,12.495748 
	C121.588905,12.309694 121.290863,12.123642 120.992180,12.007640 
	C120.992180,12.007640 121.062233,12.006975 120.880112,11.501086 
	C120.582939,11.313800 120.285759,11.126514 120.012344,10.997751 
	C120.012344,10.997751 120.062920,10.959915 119.907883,10.493384 
	C119.734070,10.204944 119.498024,9.982574 118.949951,9.414719 
	C118.747849,9.157993 118.500458,8.957011 117.943886,8.397198 
	C117.734261,8.137916 117.480354,7.933694 116.948555,7.381783 
	C116.763130,7.124667 116.529633,6.923306 115.967621,6.145067 
	C113.426804,2.453191 110.867989,4.212931 109.217659,6.672026 
	C107.397919,9.383578 106.074211,12.550234 105.120422,15.696301 
	C102.852417,23.177366 101.204575,30.853022 98.776146,38.276680 
	C97.020950,43.642265 94.414307,48.729332 92.187393,53.940609 
	C92.513954,54.199364 92.840515,54.458118 93.167076,54.716873 
	C96.270409,50.956375 99.373741,47.195881 102.893410,42.987137 
	C103.411659,42.104950 103.929909,41.222763 104.808311,39.930443 
	C105.062279,39.448891 105.316238,38.967339 105.904846,37.997284 
	C106.166245,37.466492 106.427643,36.935703 106.994057,35.933914 
	C107.229340,35.422333 107.464615,34.910748 107.978256,33.968163 
	C108.193863,33.501484 108.409477,33.034809 108.904762,32.048313 
	C109.106796,31.495419 109.308830,30.942526 109.789566,29.942442 
	C109.945259,29.442804 110.100960,28.943165 110.678558,27.864250 
	C112.281929,24.015650 113.885300,20.167048 115.619438,16.004566 
	C119.101830,17.904276 122.038483,19.506269 125.003983,21.046776 
	C125.003983,21.046776 124.940872,21.021524 125.071991,21.548687 
	C125.378326,21.719139 125.684669,21.889591 125.971603,22.006802 
	C125.971603,22.006802 125.941017,22.054508 126.072891,22.552013 
	C126.359329,22.720085 126.645767,22.888155 126.984612,23.053928 
	C126.984612,23.053928 126.942230,23.023674 127.087151,23.536678 
	C127.383865,23.710409 127.680588,23.884138 127.995605,24.004538 
	C127.995605,24.004538 127.942329,24.022982 128.088760,24.535513 
	C128.385086,24.709650 128.681412,24.883785 128.996002,25.004503 
	C128.996002,25.004503 128.942444,25.022352 129.090378,25.536135 
	C129.387665,25.710339 129.684952,25.884542 130.002777,26.001036 
	C130.002777,26.001036 129.941528,26.000690 129.971375,26.601753 
	C130.316788,27.083334 130.662216,27.564913 130.999878,27.986418 
	C130.999878,27.986418 130.946503,28.015085 131.213257,28.576813 
	C131.730545,29.222502 132.247849,29.868191 132.962860,30.957123 
	C133.268860,31.336195 133.574875,31.715267 134.125046,32.617386 
	C134.582886,33.227871 135.040726,33.838360 135.776474,35.093990 
	C139.056778,41.165913 142.337097,47.237835 145.830109,54.027229 
	C147.229950,57.606903 148.629791,61.186581 150.115631,65.551102 
	C157.159683,86.802521 161.766266,108.594994 164.520721,131.660019 
	C164.619934,133.482361 164.677582,135.308044 164.824707,137.126511 
	C166.451736,157.238052 166.239624,177.309479 162.713287,197.211517 
	C161.006027,206.847076 158.982681,216.532349 150.980698,224.066895 
	C148.314133,225.287735 145.647568,226.508575 142.138489,227.801529 
	C137.118805,227.610199 132.099136,227.418869 126.436440,227.093750 
	C126.000504,227.056808 125.564560,227.019867 124.677544,226.739182 
	C124.211533,226.557922 123.745522,226.376663 122.633553,226.061310 
	C122.415627,226.031769 122.197708,226.002228 121.591850,225.755981 
	C121.190941,225.594498 120.790031,225.433029 119.715675,225.097794 
	C119.488167,225.053238 119.260658,225.008667 118.576508,224.684021 
	C118.087738,224.477020 117.598961,224.270020 116.570084,223.632294 
	C113.210861,221.580978 109.791031,219.621399 106.509026,217.453186 
	C103.051926,215.169327 100.117088,212.539032 102.896484,207.484543 
	C102.896484,207.484543 102.904915,207.131836 103.002052,206.679642 
	C103.002052,206.679642 103.073380,206.222641 103.488640,205.520874 
	C103.648842,203.896286 103.809044,202.271683 104.429138,200.145172 
	C104.884979,198.081421 105.726799,196.018051 105.728836,193.953857 
	C105.737000,185.685379 106.063995,177.356735 105.215981,169.159698 
	C102.998779,147.727936 100.225769,126.353668 97.584122,104.151535 
	C94.269753,86.093155 90.955383,68.034767 87.458534,49.149948 
	C85.554070,42.953846 83.792992,36.707325 81.644135,30.597174 
	C81.108200,29.073267 79.321465,27.989252 78.109627,26.703053 
	C77.828995,26.998171 77.548363,27.293287 77.267738,27.588406 
	C80.243019,41.718094 83.218300,55.847782 86.212112,70.804710 
	C87.880196,82.575684 89.560905,94.344894 91.211456,106.118324 
	C92.145523,112.781120 93.030029,119.450859 93.917366,126.919228 
	C93.971031,130.936844 94.024696,134.954468 94.016747,139.915131 
	C93.966530,159.801743 93.916313,179.688370 93.586494,200.375183 
	C93.393364,206.914825 93.200241,213.454483 92.999084,219.999390 
	C92.999084,219.999390 93.005829,219.999161 93.291550,220.394348 
	C93.496796,220.651154 93.737938,220.868042 93.977295,221.003601 
	C93.977295,221.003601 93.965584,221.058365 94.338364,221.616592 
	C95.805351,222.933838 97.311714,224.210068 98.733177,225.574738 
	C112.270271,238.570831 128.229477,241.476532 146.710449,236.837097 
	C158.670471,233.042542 161.699982,229.730759 162.367889,219.360474 
	C165.944305,201.406845 168.959808,183.317917 173.248489,165.536087 
	C177.916000,146.183563 174.996658,127.541344 170.193909,108.882706 
	C169.738007,107.111542 168.080704,105.649620 166.882965,103.327721 
	C166.267197,101.558533 165.651413,99.789352 165.182220,97.383492 
	C164.467834,94.568413 163.753464,91.753326 163.010483,88.997566 
	C163.010483,88.997566 163.073517,89.016670 163.034561,88.190681 
	C159.184326,76.090065 155.334076,63.989445 151.298141,51.247345 
	C150.953644,50.431850 150.609146,49.616360 150.108261,48.083626 
	C148.866119,45.594818 147.623993,43.106007 146.150497,39.959534 
	C144.275543,37.150898 142.400589,34.342262 140.206665,30.971954 
	C138.802444,29.323259 137.398239,27.674564 135.531982,25.889215 
	C135.531982,25.889215 135.051971,25.930927 135.004471,25.967215 
	C135.004471,25.967215 135.056931,25.995869 134.898285,25.482727 
	C134.602081,25.302595 134.305878,25.122463 133.998779,25.001749 
	C133.998779,25.001749 134.058029,24.990015 133.907867,24.472734 
	C133.608826,24.295736 133.309799,24.118738 132.994308,24.001963 
	C132.994308,24.001963 133.056717,24.000807 132.938950,23.332823 
	C132.465393,22.872128 131.991852,22.411430 131.476929,21.565542 
	C131.168472,21.362200 130.860016,21.158857 129.944504,20.329268 
	C129.123779,20.196552 128.303055,20.063837 127.540825,19.659454 
	C127.436317,19.443155 127.280472,19.395784 127.370804,18.770344 
	C126.589767,17.824287 125.808723,16.878229 125.002640,15.990173 
	C125.002640,15.990173 125.065102,15.999664 124.921104,15.468147 
	C124.613556,15.290566 124.306015,15.112985 123.996544,15.003642 
	C123.996544,15.003642 124.064743,15.000605 123.915520,14.474165 
	C123.610008,14.294767 123.304504,14.115371 122.996246,14.003627 
	C122.996246,14.003627 123.063866,14.000257 122.898598,13.483394 
	C122.596428,13.301376 122.294258,13.119358 121.992149,13.007837 
	C121.992149,13.007837 122.062645,13.007370 121.886940,12.495748 
z"/>
<path fill="#352411" opacity="1.000000" stroke="none" 
	d="
M166.981155,104.044128 
	C168.080704,105.649620 169.738007,107.111542 170.193909,108.882706 
	C174.996658,127.541344 177.916000,146.183563 173.248489,165.536087 
	C168.959808,183.317917 165.944305,201.406845 161.916290,219.648102 
	C158.184662,221.258408 154.904648,222.581085 151.624634,223.903778 
	C158.982681,216.532349 161.006027,206.847076 162.713287,197.211517 
	C166.239624,177.309479 166.451736,157.238052 164.824707,137.126511 
	C164.677582,135.308044 164.619934,133.482361 164.773834,131.035492 
	C170.233353,125.264977 169.360855,119.163483 166.256332,113.871513 
	C163.886002,109.831047 164.734589,107.168793 166.981155,104.044128 
z"/>
<path fill="#3B2612" opacity="1.000000" stroke="none" 
	d="
M103.969254,200.647095 
	C103.809044,202.271683 103.648842,203.896286 103.198341,205.566330 
	C100.604057,204.410568 98.300072,203.209351 96.046349,201.635620 
	C96.064926,194.457306 96.033249,187.651489 95.998909,180.386719 
	C95.989525,168.961746 96.104187,157.993393 95.889626,147.031479 
	C95.836830,144.334229 94.710930,141.657990 94.078369,138.972092 
	C94.024696,134.954468 93.971031,130.936844 93.944923,126.047707 
	C93.638100,119.235764 93.667892,113.247429 92.893898,107.364853 
	C91.256271,94.918495 89.198975,82.527359 87.282242,69.669617 
	C85.609283,59.903236 83.967896,50.580814 82.326500,41.258396 
	C82.733559,41.179489 83.140617,41.100582 83.547668,41.021675 
	C84.417038,44.005920 85.286407,46.990170 86.228928,50.352882 
	C89.574661,68.802429 92.847229,86.873505 96.167366,105.354904 
	C100.348686,137.265930 105.658035,168.670547 103.969254,200.647095 
z"/>
<path fill="#322110" opacity="1.000000" stroke="none" 
	d="
M95.996094,202.008133 
	C98.300072,203.209351 100.604057,204.410568 102.990707,205.917206 
	C103.073380,206.222641 103.002052,206.679642 102.949760,206.992889 
	C102.887405,207.482758 102.875191,207.659225 102.860817,207.835541 
	C100.117088,212.539032 103.051926,215.169327 106.509026,217.453186 
	C109.791031,219.621399 113.210861,221.580978 117.077393,223.960449 
	C118.067528,224.513763 118.550339,224.738922 119.033150,224.964081 
	C119.260658,225.008667 119.488167,225.053238 120.245453,225.265564 
	C121.176758,225.613113 121.578278,225.792908 121.979797,225.972702 
	C122.197708,226.002228 122.415627,226.031769 123.181374,226.223755 
	C124.195671,226.585098 124.662148,226.784012 125.128624,226.982910 
	C125.564560,227.019867 126.000504,227.056808 126.907135,227.438538 
	C129.070816,228.959442 130.763809,230.135559 132.456787,231.311676 
	C128.328201,230.216141 123.951103,240.848541 120.022179,230.049698 
	C119.130661,231.897812 118.632072,232.931396 117.719818,234.822479 
	C112.663696,231.397156 107.331192,228.751114 103.342484,224.761551 
	C100.411285,221.829727 97.955849,220.166763 93.965584,221.058365 
	C93.965584,221.058365 93.977295,221.003601 93.831894,220.845825 
	C93.465759,220.452332 93.238876,220.222702 93.005829,219.999161 
	C93.005829,219.999161 92.999084,219.999390 93.005676,219.552475 
	C93.353287,214.719421 93.694305,210.333267 94.048500,205.834747 
	C94.079102,205.496063 94.073631,205.270218 94.056488,204.645462 
	C94.086166,203.447281 94.104630,202.648468 94.433990,201.884796 
	C95.161957,201.949356 95.579025,201.978745 95.996094,202.008133 
z"/>
<path fill="#3A2813" opacity="1.000000" stroke="none" 
	d="
M166.932068,103.685928 
	C164.734589,107.168793 163.886002,109.831047 166.256332,113.871513 
	C169.360855,119.163483 170.233353,125.264977 164.811005,130.596527 
	C161.766266,108.594994 157.159683,86.802521 150.066437,64.785751 
	C150.013763,63.011791 150.010254,62.003178 150.351654,60.988468 
	C151.157516,60.968639 151.618484,60.954903 152.317627,61.191471 
	C153.500504,63.343098 154.633545,65.175758 155.356186,67.158028 
	C158.002533,74.417305 160.512314,81.726357 163.073517,89.016670 
	C163.073517,89.016670 163.010483,88.997566 163.054230,89.366486 
	C163.743851,92.496994 164.389740,95.258583 165.035645,98.020164 
	C165.651413,99.789352 166.267197,101.558533 166.932068,103.685928 
z"/>
<path fill="#3C2813" opacity="1.000000" stroke="none" 
	d="
M94.151978,221.337479 
	C97.955849,220.166763 100.411285,221.829727 103.342484,224.761551 
	C107.331192,228.751114 112.663696,231.397156 117.719818,234.822479 
	C118.632072,232.931396 119.130661,231.897812 120.022179,230.049698 
	C123.951103,240.848541 128.328201,230.216141 132.456787,231.311676 
	C130.763809,230.135559 129.070816,228.959442 127.228645,227.505432 
	C132.099136,227.418869 137.118805,227.610199 142.648010,228.149536 
	C144.098877,231.318008 145.040237,234.138474 145.981613,236.958923 
	C128.229477,241.476532 112.270271,238.570831 98.733177,225.574738 
	C97.311714,224.210068 95.805351,222.933838 94.151978,221.337479 
z"/>
<path fill="#322110" opacity="1.000000" stroke="none" 
	d="
M146.346039,236.898010 
	C145.040237,234.138474 144.098877,231.318008 143.069244,228.113495 
	C145.647568,226.508575 148.314133,225.287735 151.302673,223.985321 
	C154.904648,222.581085 158.184662,221.258408 161.767426,219.990982 
	C161.699982,229.730759 158.670471,233.042542 146.346039,236.898010 
z"/>
<path fill="#383625" opacity="1.000000" stroke="none" 
	d="
M104.199196,200.396133 
	C105.658035,168.670547 100.348686,137.265930 96.425552,105.355835 
	C96.982231,104.949791 97.328293,104.953133 97.674355,104.956482 
	C100.225769,126.353668 102.998779,147.727936 105.215981,169.159698 
	C106.063995,177.356735 105.737000,185.685379 105.728836,193.953857 
	C105.726799,196.018051 104.884979,198.081421 104.199196,200.396133 
z"/>
<path fill="#484D39" opacity="1.000000" stroke="none" 
	d="
M86.155777,49.974415 
	C85.286407,46.990170 84.417038,44.005920 83.547668,41.021675 
	C83.140617,41.100582 82.733559,41.179489 82.326500,41.258396 
	C83.967896,50.580814 85.609283,59.903236 87.001228,69.630310 
	C86.565712,70.015793 86.379646,69.996628 86.193581,69.977470 
	C83.218300,55.847782 80.243019,41.718094 77.267738,27.588406 
	C77.548363,27.293287 77.828995,26.998171 78.109627,26.703053 
	C79.321465,27.989252 81.108200,29.073267 81.644135,30.597174 
	C83.792992,36.707325 85.554070,42.953846 87.178299,49.561077 
	C86.650627,49.972946 86.403206,49.973682 86.155777,49.974415 
M80.747581,35.577328 
	C80.968117,35.756454 81.188660,35.935581 81.409187,36.114704 
	C81.357231,35.679161 81.305267,35.243618 81.186638,34.497341 
	C80.971977,34.313385 80.757317,34.129433 80.542656,33.945477 
	C80.573814,34.394676 80.604973,34.843880 80.747581,35.577328 
z"/>
<path fill="#424734" opacity="1.000000" stroke="none" 
	d="
M102.477074,43.435387 
	C99.373741,47.195881 96.270409,50.956375 93.167076,54.716873 
	C92.840515,54.458118 92.513954,54.199364 92.187393,53.940609 
	C94.414307,48.729332 97.020950,43.642265 98.776146,38.276680 
	C101.204575,30.853022 102.852417,23.177366 105.120422,15.696301 
	C106.074211,12.550234 107.397919,9.383578 109.217659,6.672026 
	C110.867989,4.212931 113.426804,2.453191 116.040573,6.521329 
	C116.113533,6.897590 115.978943,7.017386 115.641006,6.946523 
	C110.744476,5.433866 109.225204,8.676571 108.265236,11.898032 
	C104.999001,22.858870 101.989250,33.896133 98.868454,44.944862 
	C98.855331,44.985500 99.073608,45.090820 99.312080,44.918732 
	C100.274216,44.092209 100.997871,43.437775 101.910065,42.946762 
	C102.098595,43.110188 102.477074,43.435390 102.477074,43.435387 
z"/>
<path fill="#424734" opacity="1.000000" stroke="none" 
	d="
M86.228928,50.352882 
	C86.403206,49.973682 86.650627,49.972946 87.269531,49.974297 
	C90.955383,68.034767 94.269753,86.093155 97.629242,104.554008 
	C97.328293,104.953133 96.982231,104.949791 96.377991,104.945518 
	C92.847229,86.873505 89.574661,68.802429 86.228928,50.352882 
z"/>
<path fill="#3F402E" opacity="1.000000" stroke="none" 
	d="
M86.202850,70.391090 
	C86.379646,69.996628 86.565712,70.015793 87.032791,70.074265 
	C89.198975,82.527359 91.256271,94.918495 92.893898,107.364853 
	C93.667892,113.247429 93.638100,119.235764 93.954666,125.646828 
	C93.030029,119.450859 92.145523,112.781120 91.211456,106.118324 
	C89.560905,94.344894 87.880196,82.575684 86.202850,70.391090 
z"/>
<path fill="#323122" opacity="1.000000" stroke="none" 
	d="
M94.047554,139.443604 
	C94.710930,141.657990 95.836830,144.334229 95.889626,147.031479 
	C96.104187,157.993393 95.989525,168.961746 95.866760,180.794388 
	C95.185631,188.129929 94.633980,194.598816 94.027664,200.694611 
	C93.937386,200.072678 93.901749,199.823837 93.866104,199.574982 
	C93.916313,179.688370 93.966530,159.801743 94.047554,139.443604 
z"/>
<path fill="#302C1D" opacity="1.000000" stroke="none" 
	d="
M163.054047,88.603676 
	C160.512314,81.726357 158.002533,74.417305 155.356186,67.158028 
	C154.633545,65.175758 153.500504,63.343098 152.270630,60.807884 
	C151.356277,57.456841 150.727142,54.739689 150.444397,51.988518 
	C151.021805,51.932606 151.252823,51.910717 151.483826,51.888824 
	C155.334076,63.989445 159.184326,76.090065 163.054047,88.603676 
z"/>
<path fill="#3F402E" opacity="1.000000" stroke="none" 
	d="
M124.975128,21.108265 
	C122.038483,19.506269 119.101830,17.904276 115.619438,16.004566 
	C113.885300,20.167048 112.281929,24.015650 110.382774,27.712482 
	C110.032013,27.266684 109.977036,26.972654 109.988571,26.337383 
	C111.086555,23.018518 111.871056,19.918728 113.257164,17.116535 
	C113.917397,15.781796 115.722343,15.013290 117.252487,14.213657 
	C119.989182,16.662100 122.482155,18.885181 124.975128,21.108265 
z"/>
<path fill="#322110" opacity="1.000000" stroke="none" 
	d="
M124.989555,21.077518 
	C122.482155,18.885181 119.989182,16.662100 117.259689,13.815456 
	C117.041649,12.395322 117.060135,11.598749 117.396896,10.836028 
	C118.139488,10.923145 118.563812,10.976411 119.258110,11.032005 
	C119.706360,11.009529 119.884636,10.984722 120.062920,10.959915 
	C120.062920,10.959915 120.012344,10.997751 120.147156,11.177067 
	C120.542053,11.573247 120.802147,11.790111 121.062233,12.006975 
	C121.062233,12.006975 120.992180,12.007640 121.138474,12.181461 
	C121.544067,12.572645 121.803352,12.790009 122.062645,13.007370 
	C122.062645,13.007370 121.992149,13.007837 122.138756,13.180316 
	C122.544861,13.568616 122.804367,13.784436 123.063866,14.000257 
	C123.063866,14.000257 122.996246,14.003627 123.143219,14.177504 
	C123.548370,14.567790 123.806557,14.784199 124.064743,15.000607 
	C124.064743,15.000605 123.996544,15.003642 124.145248,15.175489 
	C124.550995,15.564779 124.808052,15.782221 125.065102,15.999664 
	C125.065102,15.999664 125.002640,15.990173 125.098297,16.300093 
	C125.820396,17.579123 126.446838,18.548231 127.073280,19.517342 
	C127.280472,19.395784 127.436317,19.443155 127.751083,20.001564 
	C128.289612,20.608444 128.617889,20.873215 128.708923,21.252220 
	C127.987564,21.573397 127.503441,21.780338 126.749329,21.997410 
	C126.299904,22.023195 126.120461,22.038851 125.941017,22.054508 
	C125.941017,22.054508 125.971603,22.006802 125.833130,21.834335 
	C125.477608,21.408146 125.226341,21.194698 124.940872,21.021524 
	C124.940872,21.021524 125.003983,21.046776 124.989555,21.077518 
z"/>
<path fill="#323122" opacity="1.000000" stroke="none" 
	d="
M145.617401,53.309761 
	C142.337097,47.237835 139.056778,41.165913 135.786224,34.643528 
	C135.795990,34.193066 136.089615,33.932953 136.324432,34.169846 
	C139.713715,40.600700 142.868179,46.794662 145.921387,53.068981 
	C145.820129,53.149342 145.617401,53.309761 145.617401,53.309761 
z"/>
<path fill="#302C1D" opacity="1.000000" stroke="none" 
	d="
M93.726303,199.975082 
	C93.901749,199.823837 93.937386,200.072678 94.038803,200.889771 
	C94.104599,201.458038 94.123093,201.849640 94.123093,201.849640 
	C94.104630,202.648468 94.086166,203.447281 94.054405,204.870667 
	C94.041107,205.495239 94.035316,205.947128 94.035324,205.947128 
	C93.694305,210.333267 93.353287,214.719421 93.009689,219.549835 
	C93.200241,213.454483 93.393364,206.914825 93.726303,199.975082 
z"/>
<path fill="#3C2813" opacity="1.000000" stroke="none" 
	d="
M127.019325,21.987280 
	C127.503441,21.780338 127.987564,21.573397 129.110474,21.205118 
	C130.016708,21.014362 130.284134,20.984940 130.551559,20.955517 
	C130.860016,21.158857 131.168472,21.362200 131.675018,22.025356 
	C132.267639,22.990381 132.662186,23.495592 133.056717,24.000805 
	C133.056717,24.000807 132.994308,24.001963 133.161758,24.161522 
	C133.552780,24.565157 133.795715,24.788134 134.058029,24.990015 
	C134.058029,24.990015 133.998779,25.001749 134.163284,25.162651 
	C134.551788,25.568319 134.794830,25.792425 135.056931,25.995869 
	C135.056931,25.995869 135.004471,25.967215 135.001236,26.226580 
	C134.984711,26.671278 134.971405,26.856611 134.719574,27.164883 
	C134.005447,27.537306 133.529831,27.786789 132.703003,28.023941 
	C131.883347,28.012768 131.414932,28.013926 130.946503,28.015085 
	C130.946503,28.015085 130.999878,27.986418 130.896759,27.747608 
	C130.509598,27.006096 130.225571,26.503393 129.941528,26.000690 
	C129.941528,26.000690 130.002777,26.001036 129.837799,25.839031 
	C129.453247,25.432178 129.209778,25.213953 128.942444,25.022352 
	C128.942444,25.022352 128.996002,25.004503 128.834595,24.839115 
	C128.454620,24.428677 128.211014,24.211761 127.942329,24.022982 
	C127.942329,24.022982 127.995605,24.004538 127.834702,23.838795 
	C127.455574,23.427704 127.211723,23.211245 126.942230,23.023674 
	C126.942230,23.023674 126.984612,23.053928 126.988419,22.788574 
	C127.001259,22.344574 127.010292,22.165928 127.019325,21.987280 
z"/>
<path fill="#323122" opacity="1.000000" stroke="none" 
	d="
M140.525620,31.533630 
	C142.400589,34.342262 144.275543,37.150898 146.164215,40.388077 
	C146.177948,40.816616 145.974945,41.016953 145.730957,40.791878 
	C143.636703,37.726803 141.786407,34.886795 140.084259,31.919392 
	C140.232422,31.791998 140.525620,31.533630 140.525620,31.533630 
z"/>
<path fill="#323122" opacity="1.000000" stroke="none" 
	d="
M150.006775,60.994560 
	C150.010254,62.003178 150.013763,63.011791 150.023438,64.393333 
	C148.629791,61.186581 147.229950,57.606903 145.723755,53.668495 
	C145.617401,53.309761 145.820129,53.149342 146.124969,53.339203 
	C147.622131,56.017559 148.814453,58.506058 150.006775,60.994560 
z"/>
<path fill="#323122" opacity="1.000000" stroke="none" 
	d="
M146.279907,40.716908 
	C147.623993,43.106007 148.866119,45.594818 150.117401,48.494804 
	C150.126556,48.905983 149.990280,49.009640 149.758606,49.011322 
	C149.526932,49.013004 149.063416,49.015659 148.949188,48.675953 
	C147.881622,45.896481 146.928284,43.456715 145.974945,41.016953 
	C145.974945,41.016953 146.177948,40.816616 146.279907,40.716908 
z"/>
<path fill="#302C1D" opacity="1.000000" stroke="none" 
	d="
M165.108932,97.701828 
	C164.389740,95.258583 163.743851,92.496994 163.068527,89.336823 
	C163.753464,91.753326 164.467834,94.568413 165.108932,97.701828 
z"/>
<path fill="#323122" opacity="1.000000" stroke="none" 
	d="
M135.994019,26.025867 
	C137.398239,27.674564 138.802444,29.323259 140.366150,31.252792 
	C140.525620,31.533630 140.232422,31.791998 139.833572,31.721416 
	C138.295914,30.199541 137.157104,28.748247 136.009888,26.979225 
	C135.998978,26.449621 135.996506,26.237745 135.994019,26.025867 
z"/>
<path fill="#424734" opacity="1.000000" stroke="none" 
	d="
M104.448151,40.340576 
	C103.929909,41.222763 103.411659,42.104950 102.685242,43.211266 
	C102.477074,43.435390 102.098595,43.110188 102.044174,42.678894 
	C102.561638,41.426105 103.133522,40.604614 103.890976,39.922646 
	C104.076546,40.062172 104.448151,40.340576 104.448151,40.340576 
z"/>
<path fill="#424734" opacity="1.000000" stroke="none" 
	d="
M127.222046,19.143843 
	C126.446838,18.548231 125.820396,17.579123 125.110817,16.271091 
	C125.808723,16.878229 126.589767,17.824287 127.222046,19.143843 
z"/>
<path fill="#3F402E" opacity="1.000000" stroke="none" 
	d="
M131.079880,28.295948 
	C131.414932,28.013926 131.883347,28.012768 132.698517,28.351334 
	C133.049957,29.128931 133.054657,29.566803 132.980682,30.129025 
	C132.902023,30.253376 132.765137,30.513880 132.765137,30.513878 
	C132.247849,29.868191 131.730545,29.222502 131.079880,28.295948 
z"/>
<path fill="#323122" opacity="1.000000" stroke="none" 
	d="
M135.647278,34.320953 
	C135.040726,33.838360 134.582886,33.227871 134.054230,32.313011 
	C133.983429,32.008633 134.085907,31.922857 134.317200,32.089684 
	C135.062195,32.815323 135.575897,33.374138 136.089615,33.932953 
	C136.089615,33.932953 135.795990,34.193066 135.647278,34.320953 
z"/>
<path fill="#323122" opacity="1.000000" stroke="none" 
	d="
M151.390991,51.568085 
	C151.252823,51.910717 151.021805,51.932606 150.398926,51.714874 
	C149.981445,51.292442 149.955856,51.109634 149.942383,50.607838 
	C149.966415,49.862446 149.978348,49.436043 149.990280,49.009640 
	C149.990280,49.009640 150.126556,48.905983 150.195618,48.853424 
	C150.609146,49.616360 150.953644,50.431850 151.390991,51.568085 
z"/>
<path fill="#424734" opacity="1.000000" stroke="none" 
	d="
M109.922058,26.678623 
	C109.977036,26.972654 110.032013,27.266684 110.171829,28.002121 
	C110.100960,28.943165 109.945259,29.442804 109.475075,30.040264 
	C109.160583,30.138088 108.809731,29.887325 108.887222,29.560966 
	C109.283829,28.382610 109.602943,27.530615 109.922058,26.678623 
z"/>
<path fill="#424734" opacity="1.000000" stroke="none" 
	d="
M106.689041,36.404915 
	C106.427643,36.935703 106.166245,37.466492 105.538696,38.081242 
	C105.039604,38.058815 104.906670,37.952431 104.881180,37.588684 
	C105.258110,36.841595 105.527596,36.351856 106.019569,35.998642 
	C106.391060,36.225075 106.540054,36.314995 106.689041,36.404915 
z"/>
<path fill="#424734" opacity="1.000000" stroke="none" 
	d="
M130.248032,20.642393 
	C130.284134,20.984940 130.016708,21.014362 129.347717,21.090885 
	C128.617889,20.873215 128.289612,20.608444 127.721832,20.137398 
	C128.303055,20.063837 129.123779,20.196552 130.248032,20.642393 
z"/>
<path fill="#3C2813" opacity="1.000000" stroke="none" 
	d="
M118.804825,224.824051 
	C118.550339,224.738922 118.067528,224.513763 117.347443,224.175812 
	C117.598961,224.270020 118.087738,224.477020 118.804825,224.824051 
z"/>
<path fill="#3F402E" opacity="1.000000" stroke="none" 
	d="
M132.997833,23.666813 
	C132.662186,23.495592 132.267639,22.990381 131.695694,22.217953 
	C131.991852,22.411430 132.465393,22.872128 132.997833,23.666813 
z"/>
<path fill="#3C2813" opacity="1.000000" stroke="none" 
	d="
M121.785828,225.864349 
	C121.578278,225.792908 121.176758,225.613113 120.582184,225.352432 
	C120.790031,225.433029 121.190941,225.594498 121.785828,225.864349 
z"/>
<path fill="#3C2813" opacity="1.000000" stroke="none" 
	d="
M124.903084,226.861053 
	C124.662148,226.784012 124.195671,226.585098 123.504349,226.290802 
	C123.745522,226.376663 124.211533,226.557922 124.903084,226.861053 
z"/>
<path fill="#424734" opacity="1.000000" stroke="none" 
	d="
M105.371368,38.325493 
	C105.316238,38.967339 105.062279,39.448891 104.628235,40.135509 
	C104.448151,40.340576 104.076546,40.062172 104.008133,39.673019 
	C104.217720,38.804592 104.495728,38.325317 104.773735,37.846043 
	C104.906670,37.952431 105.039604,38.058815 105.371368,38.325493 
z"/>
<path fill="#3F402E" opacity="1.000000" stroke="none" 
	d="
M129.956451,26.301220 
	C130.225571,26.503393 130.509598,27.006096 130.900635,27.777645 
	C130.662216,27.564913 130.316788,27.083334 129.956451,26.301220 
z"/>
<path fill="#424734" opacity="1.000000" stroke="none" 
	d="
M107.699890,34.399162 
	C107.464615,34.910748 107.229340,35.422333 106.841553,36.169411 
	C106.540054,36.314995 106.391060,36.225075 106.123199,35.739296 
	C106.265984,34.848557 106.527626,34.353683 107.016411,33.994766 
	C107.395668,34.220207 107.547783,34.309685 107.699890,34.399162 
z"/>
<path fill="#424734" opacity="1.000000" stroke="none" 
	d="
M109.335724,30.263861 
	C109.308830,30.942526 109.106796,31.495419 108.540428,32.119034 
	C108.025955,32.064190 107.875809,31.938625 107.838722,31.560575 
	C108.237755,30.834501 108.523743,30.360912 108.809731,29.887325 
	C108.809731,29.887325 109.160583,30.138088 109.335724,30.263861 
z"/>
<path fill="#424734" opacity="1.000000" stroke="none" 
	d="
M108.400589,32.378944 
	C108.409477,33.034809 108.193863,33.501484 107.839081,34.183662 
	C107.547783,34.309685 107.395668,34.220207 107.113632,33.731358 
	C107.231026,32.825680 107.478348,32.319370 107.725662,31.813061 
	C107.875809,31.938625 108.025955,32.064190 108.400589,32.378944 
z"/>
<path fill="#323122" opacity="1.000000" stroke="none" 
	d="
M133.932159,32.051487 
	C133.574875,31.715267 133.268860,31.336195 132.863998,30.735500 
	C132.765137,30.513880 132.902023,30.253376 133.129639,30.356144 
	C133.600143,30.946892 133.843018,31.434874 134.085907,31.922855 
	C134.085907,31.922857 133.983429,32.008633 133.932159,32.051487 
z"/>
<path fill="#424734" opacity="1.000000" stroke="none" 
	d="
M120.971176,11.754030 
	C120.802147,11.790111 120.542053,11.573247 120.135277,11.147806 
	C120.285759,11.126514 120.582939,11.313800 120.971176,11.754030 
z"/>
<path fill="#424734" opacity="1.000000" stroke="none" 
	d="
M117.182159,7.784533 
	C117.480354,7.933694 117.734261,8.137916 118.023048,8.652364 
	C118.102211,8.907530 117.996597,9.003243 117.828247,8.839808 
	C117.436134,8.457801 117.213234,8.238355 117.038910,7.959641 
	C117.086624,7.901248 117.182159,7.784533 117.182159,7.784533 
z"/>
<path fill="#302C1D" opacity="1.000000" stroke="none" 
	d="
M93.148689,220.196747 
	C93.238876,220.222702 93.465759,220.452332 93.850731,220.866531 
	C93.737938,220.868042 93.496796,220.651154 93.148689,220.196747 
z"/>
<path fill="#3B2612" opacity="1.000000" stroke="none" 
	d="
M102.878647,207.660034 
	C102.875191,207.659225 102.887405,207.482758 102.901192,207.218979 
	C102.904915,207.131836 102.896484,207.484543 102.878647,207.660034 
z"/>
<path fill="#424734" opacity="1.000000" stroke="none" 
	d="
M116.180786,6.837646 
	C116.529633,6.923306 116.763130,7.124667 117.065353,7.583158 
	C117.182159,7.784533 117.086624,7.901248 116.793671,7.957150 
	C116.500725,8.013051 116.010292,8.005869 115.991531,7.759094 
	C115.972763,7.512320 115.978943,7.017386 115.978943,7.017386 
	C115.978943,7.017386 116.113533,6.897590 116.180786,6.837646 
z"/>
<path fill="#424734" opacity="1.000000" stroke="none" 
	d="
M118.154999,8.859650 
	C118.500458,8.957011 118.747849,9.157993 119.018921,9.667000 
	C119.087898,9.919280 118.977844,10.010375 118.813766,9.843102 
	C118.430931,9.452671 118.213234,9.228476 117.996597,9.003243 
	C117.996597,9.003243 118.102211,8.907530 118.154999,8.859650 
z"/>
<path fill="#424734" opacity="1.000000" stroke="none" 
	d="
M119.985397,10.726650 
	C119.884636,10.984722 119.706360,11.009529 119.255630,10.777102 
	C118.981392,10.350037 118.979622,10.180206 118.977844,10.010375 
	C118.977844,10.010375 119.087898,9.919280 119.143814,9.872779 
	C119.498024,9.982574 119.734070,10.204944 119.985397,10.726650 
z"/>
<path fill="#3F402E" opacity="1.000000" stroke="none" 
	d="
M135.763000,25.957542 
	C135.996506,26.237745 135.998978,26.449621 135.745209,26.910063 
	C135.311996,27.119734 135.135056,27.080839 134.958099,27.041945 
	C134.971405,26.856611 134.984711,26.671278 135.024994,26.208435 
	C135.051971,25.930927 135.531982,25.889215 135.763000,25.957542 
z"/>
<path fill="#3F402E" opacity="1.000000" stroke="none" 
	d="
M134.977600,25.739298 
	C134.794830,25.792425 134.551788,25.568319 134.168732,25.132942 
	C134.305878,25.122463 134.602081,25.302595 134.977600,25.739298 
z"/>
<path fill="#3F402E" opacity="1.000000" stroke="none" 
	d="
M129.016418,25.279243 
	C129.209778,25.213953 129.453247,25.432178 129.827545,25.867887 
	C129.684952,25.884542 129.387665,25.710339 129.016418,25.279243 
z"/>
<path fill="#3F402E" opacity="1.000000" stroke="none" 
	d="
M133.982941,24.731375 
	C133.795715,24.788134 133.552780,24.565157 133.169983,24.131413 
	C133.309799,24.118738 133.608826,24.295736 133.982941,24.731375 
z"/>
<path fill="#3F402E" opacity="1.000000" stroke="none" 
	d="
M128.015549,24.279247 
	C128.211014,24.211761 128.454620,24.428677 128.825470,24.865826 
	C128.681412,24.883785 128.385086,24.709650 128.015549,24.279247 
z"/>
<path fill="#3F402E" opacity="1.000000" stroke="none" 
	d="
M127.014694,23.280176 
	C127.211723,23.211245 127.455574,23.427704 127.825546,23.865459 
	C127.680588,23.884138 127.383865,23.710409 127.014694,23.280176 
z"/>
<path fill="#3F402E" opacity="1.000000" stroke="none" 
	d="
M126.749329,21.997410 
	C127.010292,22.165928 127.001259,22.344574 126.962219,22.789722 
	C126.645767,22.888155 126.359329,22.720085 126.006958,22.303261 
	C126.120461,22.038851 126.299904,22.023195 126.749329,21.997410 
z"/>
<path fill="#3F402E" opacity="1.000000" stroke="none" 
	d="
M125.006432,21.285107 
	C125.226341,21.194698 125.477608,21.408146 125.842834,21.860958 
	C125.684669,21.889591 125.378326,21.719139 125.006432,21.285107 
z"/>
<path fill="#424734" opacity="1.000000" stroke="none" 
	d="
M124.993103,15.733906 
	C124.808052,15.782221 124.550995,15.564779 124.146210,15.141370 
	C124.306015,15.112985 124.613556,15.290566 124.993103,15.733906 
z"/>
<path fill="#424734" opacity="1.000000" stroke="none" 
	d="
M123.990128,14.737387 
	C123.806557,14.784199 123.548370,14.567790 123.144592,14.143677 
	C123.304504,14.115371 123.610008,14.294767 123.990128,14.737387 
z"/>
<path fill="#424734" opacity="1.000000" stroke="none" 
	d="
M122.981232,13.741825 
	C122.804367,13.784436 122.544861,13.568616 122.138725,13.145067 
	C122.294258,13.119358 122.596428,13.301376 122.981232,13.741825 
z"/>
<path fill="#424734" opacity="1.000000" stroke="none" 
	d="
M121.974792,12.751559 
	C121.803352,12.790009 121.544067,12.572645 121.138802,12.146435 
	C121.290863,12.123642 121.588905,12.309694 121.974792,12.751559 
z"/>
<path fill="#473219" opacity="1.000000" stroke="none" 
	d="
M94.433990,201.884796 
	C94.123093,201.849640 94.104599,201.458038 94.093460,201.262878 
	C94.633980,194.598816 95.185631,188.129929 95.869431,181.253357 
	C96.033249,187.651489 96.064926,194.457306 96.046349,201.635620 
	C95.579025,201.978745 95.161957,201.949356 94.433990,201.884796 
z"/>
<path fill="#3B2612" opacity="1.000000" stroke="none" 
	d="
M94.048492,205.834747 
	C94.035316,205.947128 94.041107,205.495239 94.043182,205.270020 
	C94.073631,205.270218 94.079102,205.496063 94.048492,205.834747 
z"/>
<path fill="#362310" opacity="1.000000" stroke="none" 
	d="
M134.719574,27.164883 
	C135.135056,27.080839 135.311996,27.119734 135.753632,27.227791 
	C137.157104,28.748247 138.295914,30.199541 139.685425,31.848812 
	C141.786407,34.886795 143.636703,37.726803 145.730957,40.791878 
	C146.928284,43.456715 147.881622,45.896481 149.044403,48.921089 
	C149.479324,49.979561 149.704803,50.453194 149.930283,50.926826 
	C149.955856,51.109634 149.981445,51.292442 150.052521,51.748894 
	C150.727142,54.739689 151.356277,57.456841 152.032440,60.557579 
	C151.618484,60.954903 151.157516,60.968639 150.351669,60.988468 
	C148.814453,58.506058 147.622131,56.017559 146.226227,53.258842 
	C142.868179,46.794662 139.713715,40.600700 136.324432,34.169846 
	C135.575897,33.374138 135.062195,32.815323 134.317200,32.089684 
	C133.843018,31.434874 133.600143,30.946892 133.208298,30.231792 
	C133.054657,29.566803 133.049957,29.128931 133.049744,28.363667 
	C133.529831,27.786789 134.005447,27.537306 134.719574,27.164883 
z"/>
<path fill="#3B2612" opacity="1.000000" stroke="none" 
	d="
M80.636124,35.293079 
	C80.604973,34.843880 80.573814,34.394676 80.542656,33.945477 
	C80.757317,34.129433 80.971977,34.313385 81.065804,34.774117 
	C80.944969,35.050896 80.636124,35.293079 80.636124,35.293079 
z"/>
<path fill="#3B2612" opacity="1.000000" stroke="none" 
	d="
M81.099136,34.929485 
	C81.305267,35.243618 81.357231,35.679161 81.409195,36.114704 
	C81.188660,35.935581 80.968117,35.756454 80.691849,35.435204 
	C80.636124,35.293079 80.944969,35.050896 81.099136,34.929485 
z"/>
<path fill="#362310" opacity="1.000000" stroke="none" 
	d="
M115.641006,6.946523 
	C115.978943,7.017386 115.972763,7.512320 116.062302,8.053033 
	C116.460777,9.329888 116.769699,10.066031 117.078613,10.802176 
	C117.060135,11.598749 117.041649,12.395322 117.015961,13.590096 
	C115.722343,15.013290 113.917397,15.781796 113.257164,17.116535 
	C111.871056,19.918728 111.086555,23.018518 109.988571,26.337381 
	C109.602943,27.530615 109.283829,28.382610 108.887222,29.560965 
	C108.523743,30.360912 108.237755,30.834501 107.838715,31.560574 
	C107.478348,32.319370 107.231026,32.825680 106.886490,33.595398 
	C106.527626,34.353683 106.265984,34.848557 105.900711,35.602776 
	C105.527596,36.351856 105.258110,36.841595 104.881180,37.588684 
	C104.495728,38.325317 104.217720,38.804592 103.822563,39.533493 
	C103.133522,40.604614 102.561638,41.426105 101.855637,42.515469 
	C100.997871,43.437775 100.274216,44.092209 99.263916,44.872238 
	C98.977287,44.997837 98.881577,44.904221 98.881577,44.904221 
	C101.989250,33.896133 104.999001,22.858870 108.265236,11.898032 
	C109.225204,8.676571 110.744476,5.433866 115.641006,6.946523 
z"/>
<path fill="#362310" opacity="1.000000" stroke="none" 
	d="
M99.025452,45.044327 
	C99.073608,45.090820 98.855331,44.985500 98.868454,44.944862 
	C98.881577,44.904221 98.977287,44.997837 99.025452,45.044327 
z"/>
<path fill="#3F402E" opacity="1.000000" stroke="none" 
	d="
M117.396896,10.836027 
	C116.769699,10.066031 116.460777,9.329888 116.081070,8.299807 
	C116.010292,8.005869 116.500725,8.013051 116.745956,8.015543 
	C117.213234,8.238355 117.436134,8.457801 117.828247,8.839808 
	C118.213234,9.228476 118.430931,9.452671 118.813766,9.843102 
	C118.979622,10.180206 118.981392,10.350037 118.985649,10.774773 
	C118.563812,10.976411 118.139488,10.923145 117.396896,10.836027 
z"/>
<path fill="#302C1D" opacity="1.000000" stroke="none" 
	d="
M149.942383,50.607838 
	C149.704803,50.453194 149.479324,49.979561 149.158630,49.260796 
	C149.063416,49.015659 149.526932,49.013004 149.758606,49.011322 
	C149.978348,49.436043 149.966415,49.862446 149.942383,50.607838 
z"/>
</svg>